<svg id="Layer_1" data-name="Layer 1" xmlns="http://www.w3.org/2000/svg" viewBox="0 0 360 216"><defs><style>.cls-1{fill:#fff;}</style></defs><title>icons</title><path class="cls-1" d="M113.55,99.74a1.25,1.25,0,0,0,2,0c1.71-2.35,5.15-4.42,8.8-6.62,7.12-4.28,16-9.61,16-20,0-8.9-5.1-14.43-13.32-14.43a13,13,0,0,0-12.47,7.91,13,13,0,0,0-12.47-7.91c-8.22,0-13.32,5.53-13.32,14.43,0,10.39,8.86,15.72,16,20C108.4,95.31,111.85,97.39,113.55,99.74ZM91.27,73.12c0-7.58,3.94-11.93,10.82-11.93,9.76,0,11.18,9.25,11.23,9.64a1.25,1.25,0,0,0,1.24,1.08h0a1.25,1.25,0,0,0,1.24-1.08c0.06-.39,1.47-9.64,11.23-9.64,6.88,0,10.82,4.35,10.82,11.93,0,9-7.84,13.69-14.76,17.86-3.29,2-6.43,3.87-8.52,6.08-2.1-2.22-5.23-4.1-8.52-6.08C99.12,86.81,91.27,82.09,91.27,73.12Z"/><path class="cls-1" d="M57.92,147.07H69.31a1.25,1.25,0,0,0,0-2.5H57.92A1.25,1.25,0,1,0,57.92,147.07Z"/><path class="cls-1" d="M43,158H85.39a9.12,9.12,0,0,0,9.11-9.11v-29a9.12,9.12,0,0,0-9.11-9.11H43a9.12,9.12,0,0,0-9.11,9.11v29A9.12,9.12,0,0,0,43,158Zm-6.61-38.07A6.62,6.62,0,0,1,43,113.3H85.39A6.62,6.62,0,0,1,92,119.91v1.77H36.37v-1.77Zm0,4.27H92v6H36.37v-6Zm0,8.53H92v16.16a6.62,6.62,0,0,1-6.61,6.61H43a6.62,6.62,0,0,1-6.61-6.61V132.71Z"/><path class="cls-1" d="M40.78,147.07H52.17a1.25,1.25,0,0,0,0-2.5H40.78A1.25,1.25,0,1,0,40.78,147.07Z"/><path class="cls-1" d="M160.48,110.07l0,0,30.91-30.91,3.4-3.4a5.25,5.25,0,0,0,0-7.42l-1.61-1.61a5.26,5.26,0,0,0-7.42,0l-3.4,3.4L151.47,101l0,0a1.24,1.24,0,0,0-.22.3L144,115.84a1.25,1.25,0,0,0,1.68,1.68l14.51-7.24A1.24,1.24,0,0,0,160.48,110.07Zm27.07-41.6a2.75,2.75,0,0,1,3.89,0l1.61,1.61a2.75,2.75,0,0,1,0,3.89l-2.52,2.52L185,71Zm-39.64,45.14L152.7,104l2.41,2.41,2.41,2.41Zm9-9-2.75-2.75,29.14-29.14,5.5,5.5L159.63,107.4Z"/><path class="cls-1" d="M75,64.82V34.89a3.25,3.25,0,0,0-3.25-3.25h-50a3.23,3.23,0,0,0-1.84.58,1.24,1.24,0,0,0-.39.31l0,0a3.24,3.24,0,0,0-1,2.33V64.82a3.25,3.25,0,0,0,3.25,3.25h50A3.25,3.25,0,0,0,75,64.82Zm-2.5-29.47v29l-17-14.45Zm-2.43-1.21L52.62,49h0l-5.17,4.41a1.09,1.09,0,0,1-1.41,0L23.3,34.14H70.08ZM21,64.28V35.43l17,14.42Zm2.35,1.29L39.86,51.5l4.55,3.87a3.58,3.58,0,0,0,4.66,0l4.52-3.85L70.12,65.57H23.31Z"/><path class="cls-1" d="M246.24,74.75a8.1,8.1,0,1,0-8.1-8.1A8.11,8.11,0,0,0,246.24,74.75Zm0-13.7a5.6,5.6,0,1,1-5.6,5.6A5.61,5.61,0,0,1,246.24,61Z"/><path class="cls-1" d="M129.64,30.1a1.25,1.25,0,0,0,1.25,0l25.72-14.85a1.25,1.25,0,0,0,0-2.17L133.95,0H129V29A1.25,1.25,0,0,0,129.64,30.1Zm1.88-28.62,22,12.69-22,12.69V1.48Z"/><path class="cls-1" d="M199.1,15.79A21.35,21.35,0,0,1,194,24a1.25,1.25,0,0,0,.78,2.17c0.07,0,.42,0,1,0,2.79,0,10.87-.43,17.73-5a34,34,0,0,0,3.69.2c14.66,0,26.58-9.42,26.58-21,0-.14,0-0.27,0-0.4h-2.5c0,0.13,0,.27,0,0.4,0,10.2-10.8,18.5-24.08,18.5a31.37,31.37,0,0,1-3.85-.24,1.26,1.26,0,0,0-.87.22c-5.12,3.57-11.25,4.52-14.74,4.76a26.81,26.81,0,0,0,4-7.92,1.25,1.25,0,0,0-.48-1.43c-5.2-3.52-8.19-8.58-8.19-13.87,0-.14,0-0.27,0-0.4h-2.5c0,0.13,0,.27,0,0.4C190.61,6.26,193.69,11.82,199.1,15.79Z"/><path class="cls-1" d="M277.27,106V50.4A3.25,3.25,0,0,0,274,47.15H218.45a3.25,3.25,0,0,0-3.25,3.25V106a3.25,3.25,0,0,0,3.25,3.25H274A3.25,3.25,0,0,0,277.27,106Zm-59.58,0V50.4a0.75,0.75,0,0,1,.75-0.75H274a0.75,0.75,0,0,1,.75.75V106a0.75,0.75,0,0,1-.75.75H218.45A0.75,0.75,0,0,1,217.7,106Z"/><path class="cls-1" d="M269.54,52.64h-46.6a2.25,2.25,0,0,0-2.25,2.25v46.6a2.25,2.25,0,0,0,2.25,2.25h46.6a2.25,2.25,0,0,0,2.25-2.25V54.89A2.25,2.25,0,0,0,269.54,52.64Zm-46.35,48.6V94L237.24,80l21.28,21.28H223.19Zm46.1,0H262a1.16,1.16,0,0,0-.09-0.13L248,87.19,255.24,80,269.29,94v7.23Zm0-10.77L256.12,77.3a1.29,1.29,0,0,0-1.77,0l-8.12,8.12-8.12-8.12a1.25,1.25,0,0,0-1.77,0L223.19,90.47V55.14h46.1V90.47Z"/><path class="cls-1" d="M194,173.79a4.75,4.75,0,1,0-4.75,4.75A4.76,4.76,0,0,0,194,173.79ZM189.29,176a2.25,2.25,0,1,1,2.25-2.25A2.25,2.25,0,0,1,189.29,176Z"/><path class="cls-1" d="M328.19,48.72h-8v-8a1.25,1.25,0,0,0-2.5,0v8h-8a1.25,1.25,0,0,0,0,2.5h8v8a1.25,1.25,0,0,0,2.5,0v-8h8A1.25,1.25,0,0,0,328.19,48.72Z"/><path class="cls-1" d="M312.39,182.72a8.75,8.75,0,1,0,8.75,8.75A8.76,8.76,0,0,0,312.39,182.72Zm0,15a6.25,6.25,0,1,1,6.25-6.25A6.26,6.26,0,0,1,312.39,197.72Z"/><path class="cls-1" d="M313.64,190.22v-2.45a1.25,1.25,0,0,0-2.5,0v2.45h-2.45a1.25,1.25,0,0,0,0,2.5h2.45v2.45a1.25,1.25,0,0,0,2.5,0v-2.45h2.45a1.25,1.25,0,0,0,0-2.5h-2.45Z"/><path class="cls-1" d="M271.28,1.09c-3.65,1.76-7.63,3.9-8.63,7.1a6.49,6.49,0,0,0,.71,5.94c2,2.81,6.5,4.05,9.9,4.6a92.34,92.34,0,0,0,12.36,1.16l0.19,0H287l0.19,0a92.28,92.28,0,0,0,12.36-1.16c1.71-.27,7.47-1.43,9.9-4.79a6.3,6.3,0,0,0,.71-5.84c-1-3.15-5-5.29-8.63-7.05l-0.26-.12c-0.49-.24-1.18-0.57-2-0.92h-6.67A12.29,12.29,0,0,0,295,1l0.58,0.2a47.77,47.77,0,0,1,4.62,2l0.26,0.12c2.3,1.11,6.58,3.17,7.33,5.54a3.85,3.85,0,0,1-.35,3.63c-1.48,2.05-5.38,3.33-8.27,3.79a88.43,88.43,0,0,1-12.75,1.15,88.48,88.48,0,0,1-12.75-1.14c-4.14-.67-7.08-1.94-8.27-3.59A4.05,4.05,0,0,1,265,8.94c0.76-2.43,5.2-4.57,7.41-5.64l0.32-.18a45.78,45.78,0,0,1,4.47-1.94l0.58-.2a12.29,12.29,0,0,0,2.35-1h-6.64c-0.72.32-1.36,0.63-1.86,0.87Z"/><path class="cls-1" d="M306.36,99.75a19.22,19.22,0,1,0,12.7,33.62l18.82,18.91a1.25,1.25,0,1,0,1.77-1.76L320.82,131.6A19.18,19.18,0,0,0,306.36,99.75Zm12.25,30.58a1.12,1.12,0,0,0-.82.82A16.8,16.8,0,1,1,318.6,130.33Z"/><path class="cls-1" d="M140.41,46.25A32.07,32.07,0,0,0,169.19,0h-2.81a29.59,29.59,0,1,1-51.94,0h-2.81A32.07,32.07,0,0,0,140.41,46.25Z"/><path class="cls-1" d="M216.68,169a4.75,4.75,0,1,0,4.75,4.75A4.76,4.76,0,0,0,216.68,169Zm0,7a2.25,2.25,0,1,1,2.25-2.25A2.25,2.25,0,0,1,216.68,176Z"/><path class="cls-1" d="M79.42,150.51h6.76a1.25,1.25,0,0,0,1.25-1.25V142.5a1.25,1.25,0,0,0-1.25-1.25H79.42a1.25,1.25,0,0,0-1.25,1.25v6.76A1.25,1.25,0,0,0,79.42,150.51Zm1.25-6.76h4.26V148H80.67v-4.26Z"/><path class="cls-1" d="M284.39,151.65c0-7.28-4.18-11.8-10.91-11.8a10.73,10.73,0,0,0-10,5.91,10.73,10.73,0,0,0-10-5.91c-6.73,0-10.9,4.52-10.9,11.8,0,8.45,7.15,12.76,12.9,16.21,2.9,1.74,5.63,3.39,7,5.23a1.25,1.25,0,0,0,2,0c1.33-1.84,4.07-3.49,7-5.23C277.24,164.41,284.39,160.11,284.39,151.65ZM270.2,165.73a34.85,34.85,0,0,0-6.69,4.72,34.88,34.88,0,0,0-6.69-4.72c-5.75-3.46-11.69-7-11.69-14.07,0-2.8.82-9.3,8.4-9.3s8.69,7.19,8.74,7.49a1.25,1.25,0,0,0,2.48,0c0-.31,1.11-7.49,8.74-7.49s8.4,6.5,8.4,9.3C281.89,158.69,275.95,162.27,270.2,165.73Z"/><path class="cls-1" d="M339,50a20.1,20.1,0,1,0-20.1,20.1A20.12,20.12,0,0,0,339,50Zm-20.1,17.6A17.6,17.6,0,1,1,336.49,50,17.62,17.62,0,0,1,318.89,67.57Z"/><path class="cls-1" d="M221.48,152.92l1.7-15.32a1.25,1.25,0,0,0-1.24-1.39H183.1a1.2,1.2,0,0,0-.29.06L180.59,127a1.25,1.25,0,0,0-1.22-1H167.46a1.25,1.25,0,1,0,0,2.5h10.93l8.28,34.79a1.25,1.25,0,0,0,1.22,1h32.35a1.25,1.25,0,0,0,0-2.5H188.87L187,154h33.2A1.25,1.25,0,0,0,221.48,152.92Zm-35-1.39-3.05-12.82h37.15l-1.42,12.82H186.44Z"/><path class="cls-1" d="M154.77,153.56a1.25,1.25,0,0,0-.46-1.32l-40-30a1.25,1.25,0,0,0-2,1v50.27a1.25,1.25,0,0,0,2.14.87l10.77-11,9.21,18.43a1.25,1.25,0,0,0,1.68.56l12-6a1.25,1.25,0,0,0,.56-1.68l-9.21-18.42,14.24-1.74A1.25,1.25,0,0,0,154.77,153.56Zm-17.36.39a1.25,1.25,0,0,0-1,1.8l9.44,18.88-9.76,4.88-9.44-18.88a1.25,1.25,0,0,0-.92-0.68l-0.19,0a1.25,1.25,0,0,0-.89.38l-9.85,10.08V125.7l35.52,26.68Z"/><path class="cls-1" d="M217.19,195.41c-14.49,0-26.3,9.2-26.57,20.59h2.5c0.28-10,11-18.09,24.07-18.09S241,206,241.26,216h2.5C243.49,204.61,231.68,195.41,217.19,195.41Z"/><path class="cls-1" d="M140.41,198.08A32.12,32.12,0,0,0,111.62,216h2.81a29.58,29.58,0,0,1,51.94,0h2.81A32.12,32.12,0,0,0,140.41,198.08Z"/><path class="cls-1" d="M0,204v2.5A10.76,10.76,0,0,1,10.24,216h2.51A13.26,13.26,0,0,0,0,204Z"/><path class="cls-1" d="M129.64,214.23a1.25,1.25,0,0,0-.62,1.08V216h4.94l-3.06-1.77A1.25,1.25,0,0,0,129.64,214.23Z"/><path class="cls-1" d="M0,198v2.5c12.32,0.18,19.25,7.59,25.37,14.15L26.68,216h3.46c-1-1-1.93-2-2.94-3.09C21,206.32,13.41,198.15,0,198Z"/><path class="cls-1" d="M354.46,216h2.64a2.66,2.66,0,0,1,2.9-1.51V212c-0.15,0-.29,0-0.44,0A5.25,5.25,0,0,0,354.46,216Z"/><path class="cls-1" d="M72.59,189.22A20,20,0,0,0,53.65,216h2.66a17.6,17.6,0,1,1,32.55,0h2.66A20,20,0,0,0,72.59,189.22Z"/><path class="cls-1" d="M81.89,210.57a1.25,1.25,0,0,0,0-2.5h-8v-8a1.25,1.25,0,1,0-2.5,0v8h-8a1.25,1.25,0,0,0,0,2.5h8V216h2.5v-5.43h8Z"/><path class="cls-1" d="M295.78,214.6c-1.39-.46-2.54-0.9-2.63-1.65s0.24-1,1.1-2l0.08-.09c0.19-.21.39-0.43,0.58-0.66,3.55-4.23,5.09-8.63,4.71-13.46-0.49-6.36-5.05-10.74-11.92-11.42a9.29,9.29,0,0,0-2.58,0c-6.86.69-11.43,5.06-11.92,11.42-0.38,4.83,1.16,9.23,4.71,13.46,0.2,0.24.4,0.46,0.59,0.68l0.08,0.08c0.85,0.94,1.17,1.36,1.1,2s-1.24,1.19-2.64,1.65l-0.6.21c-1,.34-2,0.77-2.88,1.18h6.64a3.61,3.61,0,0,0,2-2.76c0.2-1.8-.82-2.93-1.73-3.94l-0.07-.08c-0.17-.19-0.35-0.39-0.53-0.61-3.11-3.7-4.46-7.52-4.13-11.66,0.39-5.07,4.1-8.57,9.68-9.13,0.34,0,.69-0.06,1-0.08s0.69,0,1,.08c5.58,0.56,9.29,4.05,9.68,9.13,0.32,4.15-1,8-4.14,11.67-0.17.21-.35,0.4-0.51,0.59l-0.08.09c-0.9,1-1.93,2.13-1.73,3.93a3.61,3.61,0,0,0,2,2.76h6.67c-0.91-.41-1.94-0.85-2.94-1.19Z"/><path class="cls-1" d="M72.59,3.87a1.25,1.25,0,0,0,1.25-1.25V0h-2.5V2.62A1.25,1.25,0,0,0,72.59,3.87Z"/><path class="cls-1" d="M348.81,1.2a10.79,10.79,0,0,1,.07-1.2h-2.51c0,0.4-.06.79-0.06,1.2a13.26,13.26,0,0,0,13.25,13.25l0.44,0v-2.5l-0.44,0A10.76,10.76,0,0,1,348.81,1.2Z"/><path class="cls-1" d="M356.81,1.2A2.72,2.72,0,0,1,357.1,0h-2.64a5.21,5.21,0,0,0-.15,1.2,5.26,5.26,0,0,0,5.25,5.25c0.15,0,.29,0,0.44,0V3.91a2.73,2.73,0,0,1-.44,0A2.75,2.75,0,0,1,356.81,1.2Z"/><path class="cls-1" d="M334,88.53a1.25,1.25,0,0,0-.73,2.26l16.38,11.9-6.26,19.25a1.25,1.25,0,0,0,1.92,1.4L360,112.66v-3.09l-13.06,9.49,5.35-16.46a1.25,1.25,0,0,0-.45-1.4L337.83,91h17.3a1.25,1.25,0,0,0,1.19-.86L360,78.86V70.76l-5.77,17.77H334Z"/><path class="cls-1" d="M332,212.81c-1,1.12-2,2.17-3,3.19h3.48l1.39-1.48c6.46-6.92,13.13-14.07,25.71-14.07l0.44,0V198l-0.44,0C345.9,198,338.53,205.85,332,212.81Z"/><path class="cls-1" d="M358.1,140.27l-0.5.19a15,15,0,0,0-8.41,8.78,15.34,15.34,0,0,0,.85,12.37,36.1,36.1,0,0,0,4.38,6.51c0.14,0.17,2.76,3.32,5.58,6.31v-3.69c-2-2.26-3.64-4.19-3.67-4.23a33.59,33.59,0,0,1-4.08-6.07,12.83,12.83,0,0,1-.71-10.35,12.37,12.37,0,0,1,6.59-7.15l1.87,2.26V141.3l-0.53-.64A1.25,1.25,0,0,0,358.1,140.27Z"/><path class="cls-1" d="M346.37,216h2.51a10.76,10.76,0,0,1,10.68-9.55l0.44,0V204l-0.44,0A13.26,13.26,0,0,0,346.37,216Z"/><path class="cls-1" d="M333.76,3.79c-0.84-.9-1.64-1.76-2.44-2.58L332.46,0H329l-0.31.32a1.25,1.25,0,0,0,0,1.77c1.06,1.06,2.13,2.2,3.25,3.41,6.22,6.67,14,15,27.63,15l0.44,0v-2.5l-0.44,0C347,18,339.95,10.42,333.76,3.79Z"/><path class="cls-1" d="M27.1,5.59c1.15-1.23,2.24-2.4,3.35-3.51a1.25,1.25,0,0,0,0-1.77L30.14,0H26.68l1.13,1.2C27,2.06,26.14,3,25.27,3.88,18.89,10.72,12.29,17.77,0,17.93v2.5C13.38,20.26,20.67,12.48,27.1,5.59Z"/><path class="cls-1" d="M2.19,176.68Q3.1,177.57,4,178.47c3.41,3.51,8.34,7.6,8.54,7.76a36.2,36.2,0,0,0,6.66,4.45,15.16,15.16,0,0,0,21-7.62c0.13-.32.19-0.5,0.19-0.5a1.25,1.25,0,0,0-.38-1.37l-10.93-9.06a1.25,1.25,0,0,0-1.77.18c-3.85,4.78-7.28,3.06-7.44,3l-0.22-.09a13.65,13.65,0,0,1-3.27-2.29,62.17,62.17,0,0,1-8.61-8.61A13.65,13.65,0,0,1,5.47,161a1.46,1.46,0,0,0-.09-0.22c-0.08-.14-1.83-3.59,3-7.45a1.25,1.25,0,0,0,.18-1.77L0,141.3v3.92l5.82,7c-4.09,3.87-3.62,7.89-2.69,9.67a15.48,15.48,0,0,0,2.69,4,64.75,64.75,0,0,0,9,9,15.48,15.48,0,0,0,4,2.69c1.78,0.93,5.8,1.4,9.67-2.69l9.29,7.69a12.67,12.67,0,0,1-17.38,5.94,33.7,33.7,0,0,1-6.21-4.15s-5-4.18-8.35-7.59q-0.91-.93-1.84-1.84c-1.29-1.26-2.69-2.76-3.93-4.13v3.69C0.73,175.22,1.47,176,2.19,176.68Z"/><path class="cls-1" d="M12.81,1.2c0-.41,0-0.8-0.06-1.2H10.24a10.79,10.79,0,0,1,.07,1.2A10.75,10.75,0,0,1,0,11.93v2.5A13.26,13.26,0,0,0,12.81,1.2Z"/><path class="cls-1" d="M72.59,13.42A20.12,20.12,0,0,0,91.52,0H88.86A17.62,17.62,0,0,1,72.59,10.92,17.62,17.62,0,0,1,56.31,0H53.65A20.12,20.12,0,0,0,72.59,13.42Z"/><path class="cls-1" d="M4.81,1.2A5.21,5.21,0,0,0,4.66,0H2a2.72,2.72,0,0,1,.29,1.2A2.75,2.75,0,0,1,0,3.91v2.5A5.24,5.24,0,0,0,4.81,1.2Z"/><path class="cls-1" d="M18,123.34a1.25,1.25,0,0,0,1.92-1.4l-6.26-19.25L30.09,90.8a1.25,1.25,0,0,0-.73-2.26H9.11L2.86,69.28a1.25,1.25,0,0,0-2.38,0L0,70.76v8.09l1.67-5.14L7,90.17A1.25,1.25,0,0,0,8.21,91h17.3l-14,10.17a1.25,1.25,0,0,0-.45,1.4l5.35,16.46-14-10.17a1.25,1.25,0,0,0-1.47,0L0,109.57v3.09l1.67-1.21Z"/><path class="cls-1" d="M0,212v2.5A2.74,2.74,0,0,1,2,216H4.66A5.24,5.24,0,0,0,0,212Z"/></svg>