<?xml version="1.0" encoding="utf-8"?>
<!-- Generator: Adobe Illustrator 19.0.0, SVG Export Plug-In . SVG Version: 6.00 Build 0)  -->
<svg version="1.1" id="Capa_1" xmlns="http://www.w3.org/2000/svg" xmlns:xlink="http://www.w3.org/1999/xlink" x="0px" y="0px"
	 viewBox="0 0 51.7 69.8" style="enable-background:new 0 0 51.7 69.8;" xml:space="preserve">
<style type="text/css">
	.st0{fill:#252C41;}
</style>
<g id="XMLID_12_">
	<circle id="XMLID_17_" class="st0" cx="22.4" cy="11.3" r="2.9"/>
	<circle id="XMLID_16_" class="st0" cx="29.9" cy="5.4" r="3.3"/>
	<path id="XMLID_13_" class="st0" d="M45.3,57.4L32.4,36.1V24.1h0.3c1.9,0,3.4-1.5,3.4-3.4c0-1.9-1.5-3.4-3.4-3.4H17.6
		c-1.9,0-3.4,1.5-3.4,3.4c0,1.9,1.5,3.4,3.4,3.4h0.3v11.9L5,57.4c-2.3,4.6,1,9.9,6.1,9.9h28.1C44.2,67.3,47.6,62,45.3,57.4z
		 M34.2,60.9H16c-2,0-3.2-2.3-2.1-4l9.3-13.5c1-1.5,3.2-1.4,4.2,0L36.3,57C37.4,58.6,36.2,60.9,34.2,60.9z"/>
</g>
</svg>
