<?xml version="1.0" encoding="utf-8"?>
<!-- Generator: Adobe Illustrator 19.0.0, SVG Export Plug-In . SVG Version: 6.00 Build 0)  -->
<svg version="1.1" id="Capa_1" xmlns="http://www.w3.org/2000/svg" xmlns:xlink="http://www.w3.org/1999/xlink" x="0px" y="0px"
	 viewBox="0 0 242 96" style="enable-background:new 0 0 242 96;" xml:space="preserve">
<style type="text/css">
	.st0{fill:#F1404B;}
</style>
<g id="XMLID_12_">
	<circle id="XMLID_17_" class="st0" cx="34.7" cy="22" r="2.9"/>
	<circle id="XMLID_16_" class="st0" cx="42.2" cy="16.1" r="3.3"/>
	<path id="XMLID_13_" class="st0" d="M57.6,68.1L44.7,46.7V34.8H45c1.9,0,3.4-1.5,3.4-3.4S46.8,28,45,28H29.9
		c-1.9,0-3.4,1.5-3.4,3.4s1.5,3.4,3.4,3.4h0.3v11.9L17.3,68.1c-2.3,4.6,1,9.9,6.1,9.9h28.1C56.5,78,59.9,72.6,57.6,68.1z M46.5,71.5
		H28.3c-2,0-3.2-2.3-2.1-4l9.3-13.5c1-1.5,3.2-1.4,4.2,0l8.9,13.5C49.7,69.3,48.5,71.5,46.5,71.5z"/>
</g>
<g id="XMLID_8_">
	<path id="XMLID_61_" class="st0" d="M75.9,69.5c0-2,0.4-4,1.1-6c0.7-2,1.8-4,3.2-5.8c1.4-1.8,3-3.4,5-4.9c1.9-1.4,4.1-2.5,6.5-3.3
		c-1.2-1-2.4-2.1-3.5-3.2c-1.1-1.1-2-2.2-2.8-3.4c-0.8-1.2-1.4-2.3-1.9-3.5s-0.7-2.3-0.7-3.5c0-1.5,0.2-2.9,0.5-4.2
		c0.3-1.3,0.8-2.6,1.4-3.7c0.6-1.1,1.3-2.2,2-3.1c0.8-0.9,1.6-1.7,2.5-2.4c0.9-0.6,1.8-1.1,2.8-1.5c1-0.3,2-0.5,3-0.5
		c1.3,0,2.6,0.3,3.8,1c1.2,0.7,2.3,1.7,3.2,3.2c0.9,1.5,1.7,3.3,2.3,5.6c0.6,2.3,0.8,5.1,0.8,8.4c0,2.4-0.1,4.6-0.3,6.7
		s-0.4,4.2-0.7,6.1c0.9,0.6,1.8,1.1,2.7,1.6c0.9,0.5,1.8,1,2.8,1.6c0.2,0.1,0.4,0.3,0.7,0.4s0.6,0.3,0.8,0.5
		c0.3,0.2,0.5,0.4,0.7,0.5s0.3,0.3,0.3,0.5s-0.1,0.3-0.2,0.4s-0.3,0.3-0.4,0.4c-0.2,0.1-0.3,0.2-0.5,0.3c-0.2,0.1-0.3,0.2-0.4,0.2
		c-0.2,0.1-0.6,0.2-1,0.2c-0.8,0-1.8-0.2-2.9-0.5c-1.1-0.3-2.3-0.7-3.6-1.3c-0.6,2.7-1.4,5.1-2.3,7.4c-0.9,2.2-1.9,4.2-2.9,6
		c-1.1,1.8-2.2,3.3-3.4,4.6c-1.2,1.3-2.4,2.4-3.6,3.3c-1.2,0.9-2.4,1.5-3.6,2c-1.2,0.4-2.3,0.7-3.5,0.7c-1.1,0-2.2-0.2-3.2-0.7
		c-1-0.5-1.8-1.2-2.6-2.1c-0.7-0.9-1.3-2.1-1.7-3.4C76.1,72.9,75.9,71.3,75.9,69.5z M81.4,70.9c0,1.5,0.3,2.6,0.9,3.4
		c0.6,0.8,1.3,1.1,2.3,1.1c1,0,2-0.4,3.3-1.3c1.2-0.8,2.4-2.1,3.6-3.9c1.2-1.8,2.4-4,3.5-6.7c1.1-2.7,2.1-5.9,2.8-9.7L97,53.3
		c-1.5,0.3-2.9,0.8-4.2,1.5c-1.3,0.7-2.6,1.6-3.7,2.6c-1.2,1-2.2,2.1-3.1,3.3c-0.9,1.2-1.7,2.4-2.4,3.6c-0.7,1.2-1.2,2.4-1.5,3.5
		C81.6,68.9,81.4,70,81.4,70.9z M88.4,34.6c0,1.2,0.3,2.3,0.8,3.5c0.5,1.1,1.2,2.3,2.1,3.4c0.9,1.1,2,2.2,3.3,3.3
		c1.3,1.1,2.7,2.2,4.2,3.3c0.2-2,0.4-4.1,0.6-6.4c0.1-2.2,0.2-4.6,0.2-7.1c0-1.7-0.1-3.2-0.3-4.3c-0.2-1.2-0.5-2.1-0.9-2.9
		c-0.4-0.7-0.8-1.3-1.3-1.6s-1-0.5-1.6-0.5c-0.5,0-1.1,0.1-1.6,0.4c-0.6,0.3-1.1,0.6-1.6,1.1c-0.5,0.5-1,1-1.5,1.6s-0.9,1.3-1.2,1.9
		c-0.3,0.7-0.6,1.4-0.8,2.1C88.5,33.2,88.4,33.9,88.4,34.6z"/>
	<path id="XMLID_65_" class="st0" d="M122,47.6c0.4,0.8,0.7,1.7,0.9,2.7s0.3,1.8,0.3,2.7c0,0.9-0.1,1.7-0.3,2.6s-0.5,1.7-0.8,2.5
		s-0.8,1.6-1.3,2.3s-1.1,1.3-1.8,1.9c-0.7,0.5-1.4,0.9-2.2,1.2c-0.8,0.3-1.6,0.5-2.5,0.5c-1.3,0-2.4-0.3-3.3-0.8
		c-0.9-0.6-1.7-1.3-2.2-2.2c-0.6-0.9-1-1.9-1.3-3c-0.3-1.1-0.4-2.3-0.4-3.4c0-1.6,0.2-3.1,0.7-4.5c0.5-1.4,1.2-2.6,2.1-3.6
		c0.9-1,2-1.8,3.3-2.4c1.3-0.6,2.7-0.9,4.4-0.9c1.4,0,2.7,0.2,3.9,0.6c1.2,0.4,2.3,1,3.4,1.7c1.1,0.7,2,1.5,2.9,2.5
		c0.9,0.9,1.8,1.9,2.5,2.9l-0.4,3.1c-0.4-0.5-0.9-1.1-1.6-1.7c-0.7-0.6-1.4-1.2-2.1-1.8s-1.5-1.1-2.2-1.6c-0.7-0.5-1.4-0.9-1.9-1.3
		L122,47.6z M115.3,59.7c0.5,0,1-0.3,1.4-0.8c0.5-0.5,0.9-1.1,1.2-1.9c0.3-0.8,0.6-1.6,0.8-2.5c0.2-0.9,0.3-1.8,0.3-2.6
		c0-0.7-0.1-1.3-0.2-1.9c-0.1-0.6-0.3-1.1-0.5-1.5c-0.2-0.4-0.5-0.8-0.8-1s-0.7-0.4-1.2-0.4c-0.6,0-1.2,0.3-1.7,0.8
		c-0.5,0.5-1,1.2-1.4,2c-0.4,0.8-0.7,1.7-1,2.6s-0.3,1.9-0.3,2.8c0,0.6,0.1,1.2,0.2,1.7c0.1,0.5,0.3,1,0.5,1.4c0.2,0.4,0.6,0.7,1,1
		C114.2,59.6,114.7,59.7,115.3,59.7z"/>
	<path id="XMLID_68_" class="st0" d="M127.6,59.4c0-0.6,0-1.4,0.1-2.2s0.2-1.7,0.3-2.7c0.1-0.9,0.3-1.9,0.4-2.9
		c0.2-1,0.3-1.9,0.5-2.8c0.2-0.9,0.4-1.7,0.6-2.4c0.2-0.7,0.4-1.4,0.6-1.8c0.1-0.3,0.2-0.6,0.3-0.8c0.1-0.2,0.3-0.3,0.4-0.4
		s0.3-0.2,0.6-0.2s0.5-0.1,0.8-0.1c0.4,0,0.7,0,0.9,0.1c0.2,0,0.4,0.1,0.5,0.3c0.1,0.1,0.2,0.3,0.2,0.6c0,0.3,0,0.6,0,1.1
		c0,0.5,0,1.2,0,1.9c0,0.8,0,1.5,0,2.3h0.2c0.3-0.6,0.6-1.2,1-2c0.4-0.7,0.8-1.4,1.3-2s1-1.2,1.6-1.6c0.6-0.4,1.3-0.6,2.1-0.6
		c0.3,0,0.5,0,0.8,0.1c0.3,0.1,0.5,0.2,0.7,0.4c0.2,0.2,0.4,0.4,0.5,0.6s0.2,0.5,0.2,0.9c0,0.2,0,0.6-0.1,1
		c-0.1,0.4-0.2,0.9-0.2,1.4c-0.1,0.5-0.2,1-0.2,1.4c-0.1,0.5-0.1,0.8-0.1,1.1c0,0.5,0.1,1,0.2,1.3s0.2,0.6,0.4,0.8
		c0.2,0.2,0.4,0.4,0.6,0.4c0.2,0.1,0.4,0.1,0.7,0.1c0.7,0,1.3-0.1,2-0.4c0.7-0.3,1.3-0.6,1.9-1c0.7-0.4,1.4-0.9,2-1.4L149,55
		c-0.4,0.2-0.8,0.5-1.3,0.8s-1,0.6-1.5,0.9c-0.5,0.3-1.1,0.5-1.7,0.7c-0.6,0.2-1.2,0.3-1.8,0.3c-1.1,0-2-0.2-2.6-0.7
		c-0.7-0.4-1.2-1-1.6-1.7c-0.4-0.7-0.7-1.5-0.9-2.4c-0.2-0.9-0.3-1.8-0.5-2.7h-0.3L132.9,61c-0.2,0.6-0.4,1-0.6,1.4
		c-0.2,0.4-0.4,0.7-0.6,0.9c-0.2,0.2-0.4,0.4-0.6,0.5c-0.2,0.1-0.5,0.1-0.7,0.1c-0.6,0-1.1-0.1-1.4-0.4c-0.4-0.3-0.6-0.6-0.8-1
		c-0.2-0.4-0.3-0.9-0.4-1.5C127.7,60.5,127.6,60,127.6,59.4z"/>
	<path id="XMLID_70_" class="st0" d="M155.5,61.6c-0.8,0.7-1.6,1.3-2.5,1.7s-1.7,0.6-2.5,0.6c-0.7,0-1.4-0.1-2-0.4
		c-0.7-0.3-1.2-0.7-1.8-1.2c-0.5-0.5-0.9-1.2-1.2-1.9c-0.3-0.8-0.5-1.6-0.5-2.6c0-1.1,0.2-2.2,0.5-3.4c0.3-1.1,0.7-2.3,1.3-3.4
		c0.5-1.1,1.2-2.1,1.9-3.1c0.7-1,1.5-1.8,2.4-2.5c0.9-0.7,1.8-1.3,2.8-1.7c1-0.4,2-0.6,3-0.6c0.3,0,0.6,0.1,0.8,0.2
		c0.2,0.1,0.3,0.3,0.5,0.4c0.1,0.2,0.2,0.3,0.4,0.5c0.1,0.2,0.3,0.3,0.4,0.3c0.2,0.1,0.4,0.1,0.5,0.1c0.2,0,0.4,0,0.6,0
		c0.2,0,0.3,0,0.5,0c0.2,0,0.3,0,0.5,0c0.2,0,0.4,0,0.6,0.1c0.2,0,0.4,0.1,0.5,0.3c0.1,0.1,0.3,0.3,0.3,0.6c0.1,0.3,0.1,0.6,0.1,1.1
		c0,0.4,0,0.9-0.1,1.5c-0.1,0.6-0.1,1.4-0.2,2.1c-0.1,0.8-0.2,1.6-0.3,2.5s-0.3,1.7-0.4,2.6c-0.3,2-0.7,4.1-1,6.4
		c0.4-0.2,0.9-0.6,1.4-0.9c0.5-0.4,1.1-0.8,1.7-1.5c0.6-0.6,1.3-1.4,2.1-2.3c0.8-0.9,1.6-2.1,2.6-3.5l1,4.8c-0.3,0.5-0.6,0.9-1,1.4
		c-0.4,0.5-0.9,0.9-1.4,1.4c-0.5,0.5-1,0.9-1.6,1.4c-0.5,0.4-1.1,0.9-1.6,1.3c-1.2,0.9-2.6,1.8-4,2.7c-0.3,1.6-0.6,3.1-1,4.5
		c-0.4,1.5-0.8,2.9-1.3,4.1c-0.5,1.3-1.1,2.5-1.8,3.5c-0.7,1.1-1.4,2-2.2,2.8c-0.8,0.8-1.8,1.4-2.8,1.8s-2.2,0.6-3.4,0.6
		c-0.5,0-1-0.1-1.6-0.2c-0.6-0.1-1.1-0.3-1.6-0.6c-0.5-0.3-0.9-0.7-1.2-1.3c-0.3-0.6-0.5-1.3-0.5-2.3c0-0.7,0.2-1.4,0.5-2.2
		c0.3-0.8,0.8-1.7,1.4-2.6c0.6-0.9,1.3-1.9,2.1-2.8s1.7-2,2.6-2.9c0.9-1,1.9-1.9,2.9-2.9c1-0.9,2.1-1.8,3.1-2.7L155.5,61.6z
		 M147.4,80c0.6,0,1.2-0.2,1.7-0.5c0.5-0.4,1-0.8,1.5-1.4c0.5-0.6,0.9-1.2,1.3-2c0.4-0.7,0.7-1.5,1-2.3c0.3-0.8,0.5-1.5,0.7-2.3
		c0.2-0.7,0.4-1.4,0.5-2c-0.6,0.4-1.1,0.8-1.7,1.4c-0.6,0.5-1.2,1.1-1.7,1.7c-0.6,0.6-1.1,1.2-1.6,1.9c-0.5,0.6-0.9,1.3-1.3,1.8
		c-0.4,0.6-0.7,1.1-0.9,1.6c-0.2,0.5-0.3,0.9-0.3,1.3C146.5,79.7,146.8,80,147.4,80z M150.6,56.9c0,0.4,0,0.7,0.1,1.1
		c0.1,0.3,0.1,0.6,0.3,0.9c0.1,0.3,0.3,0.5,0.5,0.7s0.5,0.3,0.8,0.3c0.5,0,1-0.2,1.5-0.7c0.4-0.5,0.8-1,1.1-1.7
		c0.3-0.7,0.6-1.3,0.8-2c0.2-0.7,0.3-1.3,0.4-1.7l1.3-6.4c-0.6,0-1.2,0.1-1.7,0.4s-1.1,0.7-1.6,1.2c-0.5,0.5-1,1.1-1.4,1.7
		c-0.4,0.7-0.8,1.3-1.1,2.1c-0.3,0.7-0.5,1.4-0.7,2.2C150.7,55.5,150.6,56.2,150.6,56.9z"/>
	<path id="XMLID_74_" class="st0" d="M165.2,35c-0.9,1.7-1.8,3-2.5,3.9c-0.7,0.9-1.3,1.3-1.8,1.3c-0.6,0-1-0.7-1-2.2
		c0-1.4,0.2-2.7,0.6-3.8c0.4-1.1,1-2.1,1.7-3c0.7-0.9,1.6-1.6,2.6-2.2c1-0.6,2.1-1.1,3.3-1.5c1.2-0.4,2.5-0.7,3.8-0.9
		c1.3-0.2,2.7-0.3,4.1-0.3c1.6,0,3.3,0.1,4.9,0.4c1.7,0.2,3.2,0.6,4.8,1c1.5,0.4,2.9,1,4.3,1.6c1.3,0.6,2.5,1.3,3.5,2
		c1,0.7,1.8,1.6,2.3,2.4c0.6,0.9,0.8,1.8,0.8,2.7c0,1.1-0.2,2.2-0.7,3.3c-0.5,1.1-1.3,2.1-2.3,3c-1,0.9-2.4,1.6-4,2.2
		c-1.6,0.6-3.6,0.9-5.8,0.9c1.4,0,2.7,0.2,3.8,0.7c1.1,0.5,2,1.1,2.7,1.9c0.7,0.8,1.3,1.7,1.6,2.7s0.5,2.1,0.5,3.2
		c0,0.9-0.1,1.8-0.4,2.8c-0.2,0.9-0.6,1.9-1.1,2.7c-0.5,0.9-1.1,1.7-1.9,2.5c-0.7,0.8-1.6,1.4-2.6,2c-1,0.6-2.1,1-3.4,1.3
		c-1.2,0.3-2.6,0.5-4.1,0.5c-0.9,0-1.9-0.1-3-0.2c-1-0.1-2.1-0.3-3.2-0.5c-1.1-0.2-2.1-0.5-3.1-0.8c-1-0.3-2-0.6-2.9-0.9
		c-0.4-0.1-0.8-0.3-1.1-0.5c-0.3-0.2-0.5-0.6-0.5-1.1c0-2.4,0.1-4.9,0.2-7.4c0.1-2.5,0.4-5,0.8-7.4c0.4-2.4,0.9-4.7,1.6-6.9
		c0.7-2.2,1.7-4.1,2.8-5.9c1-0.7,2-1.1,2.8-1.1c1.1,0,1.9,0.6,2.7,1.8c-0.7,0.9-1.2,1.9-1.7,3c-0.5,1.1-0.9,2.3-1.2,3.5
		c-0.3,1.2-0.6,2.5-0.8,3.7s-0.4,2.5-0.5,3.7c-0.1,0.7-0.1,1.4-0.2,2.2c-0.1,0.8-0.1,1.6-0.1,2.4c0,0.8-0.1,1.6-0.1,2.4
		c0,0.8,0,1.6,0,2.3c0,0.1,0,0.3,0,0.5c0,0.2,0,0.4,0.1,0.6c0,0.2,0.1,0.4,0.1,0.6c0.1,0.2,0.1,0.3,0.3,0.4c0.9,0.3,1.8,0.5,2.9,0.7
		c1,0.2,2,0.3,3,0.3c1.2,0,2.4-0.1,3.6-0.4c1.2-0.3,2.2-0.8,3.1-1.4s1.6-1.5,2.2-2.5c0.5-1,0.8-2.2,0.8-3.7c0-0.8-0.2-1.5-0.5-2.1
		c-0.3-0.6-0.7-1-1.3-1.4s-1.1-0.7-1.8-0.9c-0.7-0.2-1.3-0.4-2-0.6c-0.7-0.2-1.4-0.4-2-0.5c-0.7-0.2-1.2-0.4-1.8-0.7
		c-0.5-0.3-0.9-0.6-1.3-1s-0.5-0.9-0.5-1.6c0-0.3,0-0.6,0.1-0.8c0-0.2,0.1-0.4,0.3-0.6c0.1-0.1,0.3-0.3,0.6-0.3
		c0.3-0.1,0.6-0.1,1.1-0.1c0.6,0,1.2,0,1.7,0.1c0.5,0.1,1.1,0.1,1.7,0.1c1.4,0,2.7-0.2,3.8-0.5c1.1-0.3,2.1-0.8,2.9-1.4
		c0.8-0.6,1.4-1.3,1.8-2c0.4-0.8,0.6-1.6,0.6-2.5c0-0.6-0.2-1.1-0.5-1.6c-0.3-0.5-0.8-0.9-1.4-1.3c-0.6-0.4-1.3-0.7-2.1-1
		s-1.7-0.5-2.7-0.7c-1-0.2-2-0.3-3-0.4c-1.1-0.1-2.1-0.1-3.2-0.1c-1.4,0-2.7,0.1-4.1,0.2c-1.3,0.2-2.6,0.4-3.7,0.7
		c-1.2,0.3-2.2,0.7-3.1,1.2C166.3,33.8,165.7,34.3,165.2,35z"/>
	<path id="XMLID_76_" class="st0" d="M208.2,47.6c0.4,0.8,0.7,1.7,0.9,2.7c0.2,0.9,0.3,1.8,0.3,2.7c0,0.9-0.1,1.7-0.3,2.6
		c-0.2,0.9-0.5,1.7-0.8,2.5c-0.4,0.8-0.8,1.6-1.3,2.3s-1.1,1.3-1.8,1.9c-0.7,0.5-1.4,0.9-2.2,1.2c-0.8,0.3-1.6,0.5-2.5,0.5
		c-1.3,0-2.4-0.3-3.3-0.8c-0.9-0.6-1.7-1.3-2.2-2.2c-0.6-0.9-1-1.9-1.3-3s-0.4-2.3-0.4-3.4c0-1.6,0.2-3.1,0.7-4.5
		c0.5-1.4,1.2-2.6,2.1-3.6c0.9-1,2-1.8,3.3-2.4s2.7-0.9,4.4-0.9c1.4,0,2.7,0.2,3.9,0.6c1.2,0.4,2.3,1,3.4,1.7c1.1,0.7,2,1.5,2.9,2.5
		c0.9,0.9,1.8,1.9,2.5,2.9l-0.4,3.1c-0.4-0.5-0.9-1.1-1.6-1.7c-0.7-0.6-1.4-1.2-2.1-1.8s-1.5-1.1-2.2-1.6c-0.7-0.5-1.4-0.9-1.9-1.3
		L208.2,47.6z M201.5,59.7c0.5,0,1-0.3,1.4-0.8c0.5-0.5,0.9-1.1,1.2-1.9c0.3-0.8,0.6-1.6,0.8-2.5c0.2-0.9,0.3-1.8,0.3-2.6
		c0-0.7-0.1-1.3-0.2-1.9c-0.1-0.6-0.3-1.1-0.5-1.5c-0.2-0.4-0.5-0.8-0.8-1s-0.7-0.4-1.2-0.4c-0.6,0-1.2,0.3-1.7,0.8
		c-0.5,0.5-1,1.2-1.4,2s-0.7,1.7-1,2.6s-0.3,1.9-0.3,2.8c0,0.6,0.1,1.2,0.2,1.7c0.1,0.5,0.3,1,0.5,1.4c0.2,0.4,0.6,0.7,1,1
		C200.4,59.6,200.9,59.7,201.5,59.7z"/>
	<path id="XMLID_79_" class="st0" d="M232,59c-1.4,0.8-2.6,1.5-3.7,2.1c-1.1,0.6-2.1,1.1-2.9,1.5c-0.8,0.4-1.6,0.7-2.3,0.9
		c-0.7,0.2-1.3,0.3-1.8,0.3c-1.1,0-2.1-0.3-2.9-1c-0.8-0.7-1.5-1.6-2.1-2.9c-0.6-1.3-1-2.8-1.3-4.6c-0.3-1.8-0.4-3.8-0.4-6
		c0-0.9,0-1.8,0.1-2.8c0.1-1,0.2-2,0.3-2.9c-0.4-0.1-0.8-0.1-1-0.2c-0.2-0.1-0.5-0.1-0.8-0.2c-0.3-0.1-0.6-0.1-1-0.2
		c-0.4-0.1-1-0.1-1.8-0.2c-0.3,0-0.6-0.1-0.8-0.3c-0.2-0.1-0.3-0.3-0.4-0.4c-0.1-0.2-0.1-0.3-0.2-0.5c0-0.2,0-0.3,0-0.5
		c0-0.3,0.1-0.5,0.4-0.7c0.3-0.2,0.6-0.3,1.1-0.3c0.4-0.1,0.9-0.1,1.5-0.1s1,0,1.5,0c0.5,0,0.9,0,1.3,0s0.7,0,0.8,0
		c0.4-2,0.9-3.9,1.5-5.7c0.6-1.8,1.3-3.5,2-4.9c0.7-1.4,1.6-2.6,2.5-3.4s1.8-1.3,2.8-1.3c0.6,0,1.2,0.2,1.7,0.5
		c0.5,0.3,1,0.8,1.3,1.4c0.4,0.6,0.6,1.3,0.8,2s0.3,1.6,0.3,2.4c0,0.7-0.1,1.5-0.3,2.3c-0.2,0.8-0.5,1.6-0.8,2.4
		c-0.3,0.8-0.8,1.7-1.2,2.5c-0.5,0.8-1,1.7-1.5,2.5c0.1,0,0.3,0,0.7,0c0.3,0,0.7,0,1.1,0c0.4,0,0.8,0,1.3,0.1c0.5,0,0.9,0,1.4,0.1
		c0.4,0,0.8,0,1.2,0c0.4,0,0.7,0,0.9,0c0.3,0,0.5,0.2,0.6,0.4s0.2,0.6,0.2,1c0,0.5-0.1,0.9-0.4,1.2c-0.3,0.3-0.6,0.5-1,0.5h-8.4
		c-0.4,0.6-0.8,1.2-1.3,1.7c-0.4,0.6-0.8,1.1-1.2,1.5c-0.1,0.9-0.1,1.8-0.2,2.7c0,0.4,0,0.8,0,1.2s0,0.8,0,1.2c0,0.4,0,0.8,0,1.1
		c0,0.4,0,0.7,0,1c0,0.8,0.1,1.4,0.2,2c0.1,0.5,0.4,1,0.6,1.3c0.3,0.3,0.6,0.6,1,0.7s0.8,0.2,1.3,0.2c0.3,0,0.7-0.1,1.1-0.2
		c0.5-0.1,1-0.3,1.5-0.6c0.5-0.3,1.1-0.6,1.7-0.9s1.2-0.7,1.8-1.1c0.6-0.4,1.2-0.8,1.7-1.3c0.5-0.5,1-0.9,1.5-1.4V59z M225,31.5
		c0-0.2,0-0.3,0-0.5c0-0.2-0.1-0.4-0.1-0.6c-0.1-0.2-0.2-0.3-0.3-0.4s-0.4-0.2-0.6-0.2c-0.4,0-0.8,0.3-1.1,1
		c-0.4,0.7-0.8,1.5-1.1,2.6c-0.4,1-0.7,2.2-1,3.4c-0.3,1.2-0.6,2.5-0.9,3.6c0.2,0,0.4,0.1,0.7,0.1c0.2,0,0.4,0,0.7,0.1
		c0.4-0.7,0.9-1.5,1.4-2.4c0.5-0.9,0.9-1.7,1.3-2.5c0.4-0.8,0.7-1.6,0.9-2.3S225,31.9,225,31.5z"/>
</g>
<g id="XMLID_60_">
</g>
<g id="XMLID_82_">
</g>
<g id="XMLID_83_">
</g>
<g id="XMLID_84_">
</g>
<g id="XMLID_85_">
</g>
<g id="XMLID_86_">
</g>
<g id="XMLID_87_">
</g>
<g id="XMLID_88_">
</g>
<g id="XMLID_89_">
</g>
<g id="XMLID_90_">
</g>
<g id="XMLID_91_">
</g>
<g id="XMLID_92_">
</g>
<g id="XMLID_93_">
</g>
<g id="XMLID_94_">
</g>
<g id="XMLID_95_">
</g>
</svg>
